<svg enable-background="new 0 0 512 512" viewBox="0 0 512 512" xmlns="http://www.w3.org/2000/svg"><path d="m322.927 70.687c-10.48 0-20.778.501-30.82 1.473h-116.787v.197c-.14.004-.279.01-.419.014-1.33.039-2.657.084-3.98.138-.525.022-1.047.05-1.571.075-.936.043-1.873.086-2.805.137-.6.033-1.197.073-1.796.109-.852.052-1.704.102-2.552.161-.627.043-1.252.092-1.877.139-.817.061-1.633.122-2.447.189-.64.053-1.277.111-1.915.168-.793.071-1.585.141-2.374.218-.647.063-1.292.13-1.938.196-.777.08-1.553.162-2.327.247-.646.072-1.29.147-1.934.223-.767.09-1.534.183-2.298.278-.644.081-1.287.164-1.929.249-.759.1-1.516.203-2.271.309-.638.089-1.276.18-1.912.274-.755.111-1.507.225-2.258.342-.63.098-1.26.196-1.888.298-.754.122-1.504.248-2.254.376-.617.105-1.235.21-1.849.319-.757.134-1.511.274-2.264.414-.602.112-1.204.222-1.803.337-.765.147-1.525.301-2.285.454-.58.117-1.161.231-1.739.352-.791.165-1.577.337-2.363.508-.539.117-1.081.232-1.618.352-.871.195-1.734.399-2.599.602-.445.105-.893.205-1.336.312-1.298.312-2.588.633-3.871.963-.074.019-.147.039-.221.059-1.22.315-2.434.638-3.64.97-.433.119-.86.244-1.292.365-.839.236-1.679.471-2.511.714-.502.147-.998.299-1.497.449-.753.225-1.506.45-2.252.682-.53.165-1.056.335-1.583.503-.708.225-1.416.451-2.119.682-.539.177-1.073.36-1.609.54-.684.231-1.367.462-2.045.698-.539.188-1.074.379-1.609.57-.666.238-1.331.477-1.991.72-.537.198-1.071.399-1.604.6-.65.245-1.298.493-1.943.743-.531.207-1.061.416-1.588.626-.638.254-1.273.511-1.905.77-.524.215-1.046.431-1.566.649-.628.264-1.252.531-1.875.8-.513.222-1.025.444-1.533.669-.624.276-1.243.556-1.861.837-.497.226-.994.452-1.487.681-.62.289-1.234.582-1.848.876-.481.23-.963.459-1.44.693-.624.306-1.241.617-1.859.929-.455.229-.913.457-1.364.689-.642.331-1.276.668-1.91 1.005-.416.221-.836.439-1.249.662-.699.379-1.389.765-2.078 1.151-.338.189-.681.375-1.016.566-1.021.581-2.031 1.169-3.029 1.767-33.216 19.874-52.307 47.305-53.753 77.208-.003.05-.01.164-.012.213-.058 1.262-.086 2.391-.086 3.453 0 27.939 16.526 52.665 41.763 63.484v139.901c0 30.069 24.463 54.533 54.533 54.533h169.374c1.046 0 2.083-.037 3.115-.095.244-.014.486-.038.729-.056.818-.057 1.632-.13 2.44-.223.211-.025.421-.053.631-.08.876-.111 1.745-.243 2.607-.396.123-.022.246-.043.368-.066.996-.183 1.982-.391 2.958-.628h125.623c30.069 0 54.533-24.463 54.533-54.532v-139.902c25.236-10.818 41.763-35.544 41.763-63.483-.001-67.685-71.041-111.419-180.983-111.419z" fill="#bc7535"/><path d="m356.302 183.649c0-63.753-69.775-102.283-171.847-102.283-100.109 0-169.143 44.97-171.761 99.091-.003.053-.007.106-.009.159-.046 1.008-.077 2.018-.077 3.033 0 26.772 17.546 49.438 41.763 57.148v146.237c0 25.072 20.325 45.397 45.397 45.397h169.374c25.072 0 45.397-20.325 45.397-45.397v-146.237c24.217-7.71 41.763-30.377 41.763-57.148z" fill="#fcdea2"/></svg>