<?xml version="1.0" encoding="UTF-8" standalone="no"?>
<!-- Generator: Adobe Illustrator 23.0.3, SVG Export Plug-In . SVG Version: 6.00 Build 0)  -->

<svg
   version="1.1"
   x="0px"
   y="0px"
   viewBox="0 0 1799.6 1200.87"
   style="enable-background:new 0 0 1799.6 1200.87;"
   xml:space="preserve"
   id="svg17247"
   sodipodi:docname="logo.svg"
   inkscape:version="1.1.2 (0a00cf5339, 2022-02-04)"
   xmlns:inkscape="http://www.inkscape.org/namespaces/inkscape"
   xmlns:sodipodi="http://sodipodi.sourceforge.net/DTD/sodipodi-0.dtd"
   xmlns:xlink="http://www.w3.org/1999/xlink"
   xmlns="http://www.w3.org/2000/svg"
   xmlns:svg="http://www.w3.org/2000/svg"><defs
   id="defs17251"><linearGradient
     id="linearGradient14304"
     y2="390.35999"
     gradientUnits="userSpaceOnUse"
     x2="588.95001"
     gradientTransform="matrix(-0.70227,0,0,1,2308.883,84.076901)"
     y1="390.35999"
     x1="631.84003"
     inkscape:collect="always"><stop
       id="stop14300"
       style="stop-color:#a2a6a1"
       offset="0" /><stop
       id="stop14302"
       style="stop-color:#a2a6a1;stop-opacity:0"
       offset="1" /></linearGradient><linearGradient
     id="linearGradient14278"
     y2="439.85999"
     xlink:href="#linearGradient4570"
     gradientUnits="userSpaceOnUse"
     x2="216"
     gradientTransform="matrix(1.8563,0,0,1.8563,1446.693,-115.4331)"
     y1="435.98999"
     x1="216"
     inkscape:collect="always" /><linearGradient
     id="linearGradient4570"
     inkscape:collect="always"><stop
       id="stop4572"
       style="stop-color:#2e3436"
       offset="0" /><stop
       id="stop4574"
       style="stop-color:#2e3436;stop-opacity:0"
       offset="1" /></linearGradient><linearGradient
     id="linearGradient14281"
     y2="439.85999"
     xlink:href="#linearGradient4570"
     gradientUnits="userSpaceOnUse"
     x2="216"
     gradientTransform="matrix(1.8563,0,0,1.8563,1446.693,-125.6431)"
     y1="435.98999"
     x1="216"
     inkscape:collect="always" /><linearGradient
     id="linearGradient14284"
     y2="551.35999"
     xlink:href="#linearGradient4606"
     gradientUnits="userSpaceOnUse"
     x2="223.59"
     gradientTransform="matrix(1.8563,0,0,1.8563,1446.693,-125.6431)"
     y1="551.35999"
     x1="219.34"
     inkscape:collect="always" /><linearGradient
     id="linearGradient4606"
     inkscape:collect="always"><stop
       id="stop4608"
       style="stop-color:#9ea39e"
       offset="0" /><stop
       id="stop4610"
       style="stop-color:#9ea39e;stop-opacity:0"
       offset="1" /></linearGradient><linearGradient
     id="linearGradient14287"
     y2="551.35999"
     xlink:href="#linearGradient4606"
     gradientUnits="userSpaceOnUse"
     x2="216.09"
     gradientTransform="matrix(1.8563,0,0,1.8563,1446.693,-125.6431)"
     y1="551.35999"
     x1="211.84"
     inkscape:collect="always" /><linearGradient
     id="linearGradient14290"
     y2="551.03003"
     xlink:href="#linearGradient4582"
     gradientUnits="userSpaceOnUse"
     x2="208.59"
     gradientTransform="matrix(1.8563,0,0,1.8563,1446.693,-125.6431)"
     y1="551.03003"
     x1="204.34"
     inkscape:collect="always" /><linearGradient
     id="linearGradient4582"
     inkscape:collect="always"><stop
       id="stop4584"
       style="stop-color:#acb0ab"
       offset="0" /><stop
       id="stop4586"
       style="stop-color:#acb0ab;stop-opacity:0"
       offset="1" /></linearGradient><linearGradient
     id="linearGradient14293"
     y2="550.94"
     xlink:href="#linearGradient4606"
     gradientUnits="userSpaceOnUse"
     x2="231.09"
     gradientTransform="matrix(1.8563,0,0,1.8563,1446.693,-125.6431)"
     y1="550.94"
     x1="226.88"
     inkscape:collect="always" /><linearGradient
     id="linearGradient4789"
     y2="550.94"
     xlink:href="#linearGradient4606"
     gradientUnits="userSpaceOnUse"
     x2="231.09"
     gradientTransform="matrix(1.8563,0,0,1.8563,-37.22,-215.72)"
     y1="550.94"
     x1="226.88"
     inkscape:collect="always" /><linearGradient
     id="linearGradient4786"
     y2="551.03003"
     xlink:href="#linearGradient4582"
     gradientUnits="userSpaceOnUse"
     x2="208.59"
     gradientTransform="matrix(1.8563,0,0,1.8563,-37.22,-215.72)"
     y1="551.03003"
     x1="204.34"
     inkscape:collect="always" /><linearGradient
     id="linearGradient4783"
     y2="551.35999"
     xlink:href="#linearGradient4606"
     gradientUnits="userSpaceOnUse"
     x2="216.09"
     gradientTransform="matrix(1.8563,0,0,1.8563,-37.22,-215.72)"
     y1="551.35999"
     x1="211.84"
     inkscape:collect="always" /><linearGradient
     id="linearGradient4780"
     y2="551.35999"
     xlink:href="#linearGradient4606"
     gradientUnits="userSpaceOnUse"
     x2="223.59"
     gradientTransform="matrix(1.8563,0,0,1.8563,-37.22,-215.72)"
     y1="551.35999"
     x1="219.34"
     inkscape:collect="always" /><linearGradient
     id="linearGradient4777"
     y2="439.85999"
     xlink:href="#linearGradient4570"
     gradientUnits="userSpaceOnUse"
     x2="216"
     gradientTransform="matrix(1.8563,0,0,1.8563,-37.22,-215.72)"
     y1="435.98999"
     x1="216"
     inkscape:collect="always" /><linearGradient
     id="linearGradient4774"
     y2="439.85999"
     xlink:href="#linearGradient4570"
     gradientUnits="userSpaceOnUse"
     x2="216"
     gradientTransform="matrix(1.8563,0,0,1.8563,-37.22,-205.51)"
     y1="435.98999"
     x1="216"
     inkscape:collect="always" /><linearGradient
     id="linearGradient4807"
     y2="427.38"
     gradientUnits="userSpaceOnUse"
     x2="329.88"
     gradientTransform="matrix(1.8563,0,0,1.8563,-243.99,-215.72)"
     y1="390.72"
     x1="329.88"
     inkscape:collect="always"><stop
       id="stop4803"
       style="stop-color:#a2a6a1"
       offset="0" /><stop
       id="stop4805"
       style="stop-color:#a2a6a1;stop-opacity:0"
       offset="1" /></linearGradient><radialGradient
     id="radialGradient4822"
     xlink:href="#linearGradient4816"
     gradientUnits="userSpaceOnUse"
     cy="352.88"
     cx="439.70001"
     gradientTransform="matrix(2.3325,0,0,3.0617,-634.96,-721.17)"
     r="46.780998"
     inkscape:collect="always" /><linearGradient
     id="linearGradient4816"
     inkscape:collect="always"><stop
       id="stop4818"
       style="stop-color:#e4e5e2"
       offset="0" /><stop
       id="stop4820"
       style="stop-color:#e4e5e2;stop-opacity:0"
       offset="1" /></linearGradient><radialGradient
     id="radialGradient26082"
     xlink:href="#linearGradient4816"
     gradientUnits="userSpaceOnUse"
     cy="352.88"
     cx="439.70001"
     gradientTransform="matrix(2.3325,0,0,3.0617,-634.96,-721.17)"
     r="46.780998"
     inkscape:collect="always" /><linearGradient
     id="linearGradient4612"
     y2="550.94"
     xlink:href="#linearGradient4606"
     gradientUnits="userSpaceOnUse"
     x2="231.09"
     gradientTransform="matrix(1.8563,0,0,1.8563,-243.99,-215.72)"
     y1="550.94"
     x1="226.88"
     inkscape:collect="always" /><linearGradient
     id="linearGradient4588"
     y2="551.03003"
     xlink:href="#linearGradient4582"
     gradientUnits="userSpaceOnUse"
     x2="208.59"
     gradientTransform="matrix(1.8563,0,0,1.8563,-243.99,-215.72)"
     y1="551.03003"
     x1="204.34"
     inkscape:collect="always" /><linearGradient
     id="linearGradient4596"
     y2="551.35999"
     xlink:href="#linearGradient4606"
     gradientUnits="userSpaceOnUse"
     x2="216.09"
     gradientTransform="matrix(1.8563,0,0,1.8563,-243.99,-215.72)"
     y1="551.35999"
     x1="211.84"
     inkscape:collect="always" /><linearGradient
     id="linearGradient4604"
     y2="551.35999"
     xlink:href="#linearGradient4606"
     gradientUnits="userSpaceOnUse"
     x2="223.59"
     gradientTransform="matrix(1.8563,0,0,1.8563,-243.99,-215.72)"
     y1="551.35999"
     x1="219.34"
     inkscape:collect="always" /><radialGradient
     id="radialGradient4614"
     gradientUnits="userSpaceOnUse"
     cy="394.23001"
     cx="217.49001"
     gradientTransform="matrix(3.9247,0.19888,-0.1072,2.1155,-651.58,-357.45)"
     r="33"
     inkscape:collect="always"><stop
       id="stop4560"
       style="stop-color:#2e3436"
       offset="0" /><stop
       id="stop4562"
       style="stop-color:#2e3436;stop-opacity:0"
       offset="1" /></radialGradient><linearGradient
     id="linearGradient4576"
     y2="439.85999"
     xlink:href="#linearGradient4570"
     gradientUnits="userSpaceOnUse"
     x2="216"
     gradientTransform="matrix(1.8563,0,0,1.8563,-243.99,-215.72)"
     y1="435.98999"
     x1="216"
     inkscape:collect="always" /><linearGradient
     id="linearGradient4580"
     y2="439.85999"
     xlink:href="#linearGradient4570"
     gradientUnits="userSpaceOnUse"
     x2="216"
     gradientTransform="matrix(1.8563,0,0,1.8563,-243.99,-205.51)"
     y1="435.98999"
     x1="216"
     inkscape:collect="always" /><radialGradient
     id="radialGradient4624"
     gradientUnits="userSpaceOnUse"
     cy="371.35999"
     cx="216.75"
     gradientTransform="matrix(3.6549,2.2529e-8,0,0.12389,-575.44,322.35)"
     r="28.25"
     inkscape:collect="always"><stop
       id="stop4620"
       style="stop-color:#ffffff"
       offset="0" /><stop
       id="stop4622"
       style="stop-color:#ffffff;stop-opacity:0"
       offset="1" /></radialGradient><filter
     id="filter4662"
     height="1.6425595"
     width="1.0796091"
     y="-0.32127976"
     x="-0.039804572"
     inkscape:collect="always"><feGaussianBlur
       id="feGaussianBlur4664"
       stdDeviation="0.93706597"
       inkscape:collect="always" /></filter><radialGradient
     inkscape:collect="always"
     xlink:href="#linearGradient4816"
     id="radialGradient26171"
     gradientUnits="userSpaceOnUse"
     gradientTransform="matrix(2.3325,0,0,3.0617,-634.96,-721.17)"
     cx="439.70001"
     cy="352.88"
     r="46.780998" /></defs><sodipodi:namedview
   id="namedview17249"
   pagecolor="#ffffff"
   bordercolor="#666666"
   borderopacity="1.0"
   inkscape:pageshadow="2"
   inkscape:pageopacity="0.0"
   inkscape:pagecheckerboard="0"
   showgrid="false"
   inkscape:zoom="0.71238054"
   inkscape:cx="899.09812"
   inkscape:cy="473.06177"
   inkscape:window-width="2164"
   inkscape:window-height="1355"
   inkscape:window-x="388"
   inkscape:window-y="289"
   inkscape:window-maximized="0"
   inkscape:current-layer="svg17247" />
<style
   type="text/css"
   id="style17010">
	.st0{fill:#E3E5FC;}
	.st1{fill:#A7ADFF;}
	.st2{fill:#FFFFFF;}
	.st3{fill:#5A54FF;}
	.st4{fill:#F44E4E;}
	.st5{fill:#EAC2AB;}
	.st6{fill:#D4A79A;}
	.st7{fill:#FDC510;}
	.st8{fill:#4B369D;}
</style>
<g
   id="UI">
	<g
   id="Calendar">
		<ellipse
   class="st0"
   cx="1017.72"
   cy="1054.4399"
   rx="390.17001"
   ry="18.719999"
   id="ellipse17012" />
		<g
   id="g17018">
			<path
   class="st1"
   d="m 1521.62,221.36 c 0,-24.73 -20.23,-44.96 -44.96,-44.96 H 560.38 c -24.73,0 -44.96,20.23 -44.96,44.96 V 323.6 H 1521.63 V 221.36 Z"
   id="path17014" />
			<rect
   x="515.40997"
   y="323.60001"
   class="st0"
   width="1006.21"
   height="611.03998"
   id="rect17016" />
		</g>
		<path
   class="st2"
   d="m 702.91,516.82 h -89.59 c -13.05,0 -23.73,-10.68 -23.73,-23.73 v -81.03 c 0,-13.05 10.68,-23.73 23.73,-23.73 h 89.59 c 13.05,0 23.73,10.68 23.73,23.73 v 81.03 c 0,13.05 -10.68,23.73 -23.73,23.73 z"
   id="path17020" />
		<path
   class="st2"
   d="m 942.06,516.82 h -89.59 c -13.05,0 -23.73,-10.68 -23.73,-23.73 v -81.03 c 0,-13.05 10.68,-23.73 23.73,-23.73 h 89.59 c 13.05,0 23.73,10.68 23.73,23.73 v 81.03 c 0,13.05 -10.68,23.73 -23.73,23.73 z"
   id="path17022" />
		<path
   class="st2"
   d="m 1181.21,516.82 h -89.59 c -13.05,0 -23.73,-10.68 -23.73,-23.73 v -81.03 c 0,-13.05 10.68,-23.73 23.73,-23.73 h 89.59 c 13.05,0 23.73,10.68 23.73,23.73 v 81.03 c 0,13.05 -10.68,23.73 -23.73,23.73 z"
   id="path17024" />
		<path
   class="st2"
   d="m 1420.36,516.82 h -89.59 c -13.05,0 -23.73,-10.68 -23.73,-23.73 v -81.03 c 0,-13.05 10.68,-23.73 23.73,-23.73 h 89.59 c 13.05,0 23.73,10.68 23.73,23.73 v 81.03 c 0,13.05 -10.68,23.73 -23.73,23.73 z"
   id="path17026" />
		<path
   class="st2"
   d="m 702.91,689.62 h -89.59 c -13.05,0 -23.73,-10.68 -23.73,-23.73 v -81.03 c 0,-13.05 10.68,-23.73 23.73,-23.73 h 89.59 c 13.05,0 23.73,10.68 23.73,23.73 v 81.03 c 0,13.05 -10.68,23.73 -23.73,23.73 z"
   id="path17028" />
		<path
   class="st2"
   d="m 942.06,689.62 h -89.59 c -13.05,0 -23.73,-10.68 -23.73,-23.73 v -81.03 c 0,-13.05 10.68,-23.73 23.73,-23.73 h 89.59 c 13.05,0 23.73,10.68 23.73,23.73 v 81.03 c 0,13.05 -10.68,23.73 -23.73,23.73 z"
   id="path17030" />
		<path
   class="st2"
   d="m 1181.21,689.62 h -89.59 c -13.05,0 -23.73,-10.68 -23.73,-23.73 v -81.03 c 0,-13.05 10.68,-23.73 23.73,-23.73 h 89.59 c 13.05,0 23.73,10.68 23.73,23.73 v 81.03 c 0,13.05 -10.68,23.73 -23.73,23.73 z"
   id="path17032" />
		<path
   class="st2"
   d="m 1420.36,689.62 h -89.59 c -13.05,0 -23.73,-10.68 -23.73,-23.73 v -81.03 c 0,-13.05 10.68,-23.73 23.73,-23.73 h 89.59 c 13.05,0 23.73,10.68 23.73,23.73 v 81.03 c 0,13.05 -10.68,23.73 -23.73,23.73 z"
   id="path17034" />
		<path
   class="st2"
   d="m 702.91,862.42 h -89.59 c -13.05,0 -23.73,-10.68 -23.73,-23.73 v -81.03 c 0,-13.05 10.68,-23.73 23.73,-23.73 h 89.59 c 13.05,0 23.73,10.68 23.73,23.73 v 81.03 c 0,13.05 -10.68,23.73 -23.73,23.73 z"
   id="path17036" />
		<path
   class="st2"
   d="m 942.06,862.42 h -89.59 c -13.05,0 -23.73,-10.68 -23.73,-23.73 v -81.03 c 0,-13.05 10.68,-23.73 23.73,-23.73 h 89.59 c 13.05,0 23.73,10.68 23.73,23.73 v 81.03 c 0,13.05 -10.68,23.73 -23.73,23.73 z"
   id="path17038" />
		<path
   class="st2"
   d="m 1181.21,862.42 h -89.59 c -13.05,0 -23.73,-10.68 -23.73,-23.73 v -81.03 c 0,-13.05 10.68,-23.73 23.73,-23.73 h 89.59 c 13.05,0 23.73,10.68 23.73,23.73 v 81.03 c 0,13.05 -10.68,23.73 -23.73,23.73 z"
   id="path17040" />
		<path
   class="st2"
   d="m 1420.36,862.42 h -89.59 c -13.05,0 -23.73,-10.68 -23.73,-23.73 v -81.03 c 0,-13.05 10.68,-23.73 23.73,-23.73 h 89.59 c 13.05,0 23.73,10.68 23.73,23.73 v 81.03 c 0,13.05 -10.68,23.73 -23.73,23.73 z"
   id="path17042" />
		<g
   id="g17068">
			<g
   id="g17048">
				<circle
   class="st3"
   cx="743.66998"
   cy="244.07001"
   r="33.599998"
   id="circle17044" />
				<path
   class="st4"
   d="m 744.99,258.89 v 0 c -10.19,0 -18.53,-8.34 -18.53,-18.53 v -94.13 c 0,-10.19 8.34,-18.53 18.53,-18.53 v 0 c 10.19,0 18.53,8.34 18.53,18.53 v 94.13 c 0,10.19 -8.34,18.53 -18.53,18.53 z"
   id="path17046" />
			</g>
			<g
   id="g17054">
				<circle
   class="st3"
   cx="926.27002"
   cy="244.07001"
   r="33.599998"
   id="circle17050" />
				<path
   class="st4"
   d="m 927.59,258.89 v 0 c -10.19,0 -18.53,-8.34 -18.53,-18.53 v -94.13 c 0,-10.19 8.34,-18.53 18.53,-18.53 v 0 c 10.19,0 18.53,8.34 18.53,18.53 v 94.13 c 0,10.19 -8.34,18.53 -18.53,18.53 z"
   id="path17052" />
			</g>
			<g
   id="g17060">
				<circle
   class="st3"
   cx="1108.87"
   cy="244.07001"
   r="33.599998"
   id="circle17056" />
				<path
   class="st4"
   d="m 1110.19,258.89 v 0 c -10.19,0 -18.53,-8.34 -18.53,-18.53 v -94.13 c 0,-10.19 8.34,-18.53 18.53,-18.53 v 0 c 10.19,0 18.53,8.34 18.53,18.53 v 94.13 c 0,10.19 -8.34,18.53 -18.53,18.53 z"
   id="path17058" />
			</g>
			<g
   id="g17066">
				<circle
   class="st3"
   cx="1291.47"
   cy="244.07001"
   r="33.599998"
   id="circle17062" />
				<path
   class="st4"
   d="m 1292.79,258.89 v 0 c -10.19,0 -18.53,-8.34 -18.53,-18.53 v -94.13 c 0,-10.19 8.34,-18.53 18.53,-18.53 v 0 c 10.19,0 18.53,8.34 18.53,18.53 v 94.13 c 0,10.19 -8.34,18.53 -18.53,18.53 z"
   id="path17064" />
			</g>
		</g>
		<g
   id="g17078">
			<polygon
   class="st4"
   points="643.09,661.97 643.08,661.96 643.08,661.97 "
   id="polygon17070" />
			<path
   class="st4"
   d="m 708.77,596.28 c -1.73,-1.73 -4.56,-1.73 -6.29,0 l -56.25,56.25 6.29,6.29 56.25,-56.25 c 1.73,-1.73 1.73,-4.56 0,-6.29 z"
   id="path17072" />
			<path
   class="st4"
   d="m 643.08,655.68 3.14,-3.15 -25.44,-25.44 c -1.73,-1.73 -4.56,-1.73 -6.29,0 -1.73,1.73 -1.73,4.56 0,6.29 l 28.59,28.59 c -1.72,-1.73 -1.72,-4.56 0,-6.29 z"
   id="path17074" />
			<path
   class="st4"
   d="m 643.08,655.68 c -1.73,1.73 -1.73,4.56 0,6.29 v 0 c 1.73,1.73 4.56,1.73 6.29,0 l 3.14,-3.14 -6.29,-6.29 z"
   id="path17076" />
		</g>
		<g
   id="g17082">
			<path
   class="st4"
   d="m 1121.01,833.25 c -1.38,0 -2.76,-0.52 -3.81,-1.57 l -28.59,-28.59 c -1.01,-1.01 -1.57,-2.36 -1.57,-3.81 0,-1.45 0.56,-2.79 1.57,-3.81 2.02,-2.03 5.59,-2.03 7.61,0 l 24.78,24.78 55.59,-55.59 c 2.1,-2.09 5.51,-2.1 7.61,0 v 0 c 2.1,2.1 2.1,5.51 0,7.61 l -59.4,59.4 c -1.03,1.06 -2.41,1.58 -3.79,1.58 z m -28.58,-37.47 c -0.94,0 -1.82,0.36 -2.48,1.02 -0.66,0.66 -1.02,1.54 -1.02,2.48 0,0.94 0.37,1.82 1.02,2.48 l 28.59,28.59 c 1.37,1.37 3.6,1.36 4.97,0 l 59.4,-59.4 c 1.36,-1.37 1.36,-3.6 0,-4.96 -1.37,-1.37 -3.6,-1.36 -4.97,0 l -56.92,56.91 -26.1,-26.1 c -0.67,-0.65 -1.55,-1.02 -2.49,-1.02 z"
   id="path17080" />
		</g>
		<g
   id="g17092">
			<polygon
   class="st4"
   points=""
   id="polygon17084" />
			<path
   class="st4"
   d="m 944.41,419.73 c -1.73,-1.73 -4.56,-1.73 -6.29,0 l -56.25,56.25 6.29,6.29 56.25,-56.25 c 1.72,-1.73 1.72,-4.56 0,-6.29 z"
   id="path17086" />
			<path
   class="st4"
   d="m 878.72,479.13 3.14,-3.15 -25.44,-25.44 c -1.73,-1.73 -4.56,-1.73 -6.29,0 -1.73,1.73 -1.73,4.56 0,6.29 l 28.59,28.59 c -1.73,-1.73 -1.73,-4.56 0,-6.29 z"
   id="path17088" />
			<path
   class="st4"
   d="m 878.72,479.13 c -1.73,1.73 -1.73,4.56 0,6.29 v 0 c 1.73,1.73 4.56,1.73 6.29,0 l 3.14,-3.14 -6.29,-6.29 z"
   id="path17090" />
		</g>
		<g
   id="g17102">
			<path
   class="st0"
   d="m 943.9,593.33 h -93.26 c -2.94,0 -5.34,-2.4 -5.34,-5.34 v 0 c 0,-2.94 2.4,-5.34 5.34,-5.34 h 93.26 c 2.94,0 5.34,2.4 5.34,5.34 v 0 c 0,2.94 -2.4,5.34 -5.34,5.34 z"
   id="path17094" />
			<path
   class="st0"
   d="m 943.9,619.27 h -93.26 c -2.94,0 -5.34,-2.4 -5.34,-5.34 v 0 c 0,-2.94 2.4,-5.34 5.34,-5.34 h 93.26 c 2.94,0 5.34,2.4 5.34,5.34 v 0 c 0,2.94 -2.4,5.34 -5.34,5.34 z"
   id="path17096" />
			<path
   class="st0"
   d="m 943.9,645.21 h -93.26 c -2.94,0 -5.34,-2.4 -5.34,-5.34 v 0 c 0,-2.94 2.4,-5.34 5.34,-5.34 h 93.26 c 2.94,0 5.34,2.4 5.34,5.34 v 0 c 0,2.94 -2.4,5.34 -5.34,5.34 z"
   id="path17098" />
			<path
   class="st0"
   d="m 943.9,671.15 h -93.26 c -2.94,0 -5.34,-2.4 -5.34,-5.34 v 0 c 0,-2.94 2.4,-5.34 5.34,-5.34 h 93.26 c 2.94,0 5.34,2.4 5.34,5.34 v 0 c 0,2.94 -2.4,5.34 -5.34,5.34 z"
   id="path17100" />
		</g>
		<g
   id="g17112">
			<path
   class="st0"
   d="m 704.75,767.5 h -93.26 c -2.94,0 -5.34,-2.4 -5.34,-5.34 v 0 c 0,-2.94 2.4,-5.34 5.34,-5.34 h 93.26 c 2.94,0 5.34,2.4 5.34,5.34 v 0 c 0,2.94 -2.41,5.34 -5.34,5.34 z"
   id="path17104" />
			<path
   class="st0"
   d="m 704.75,793.44 h -93.26 c -2.94,0 -5.34,-2.4 -5.34,-5.34 v 0 c 0,-2.94 2.4,-5.34 5.34,-5.34 h 93.26 c 2.94,0 5.34,2.4 5.34,5.34 v 0 c 0,2.94 -2.41,5.34 -5.34,5.34 z"
   id="path17106" />
			<path
   class="st0"
   d="m 704.75,819.38 h -93.26 c -2.94,0 -5.34,-2.4 -5.34,-5.34 v 0 c 0,-2.94 2.4,-5.34 5.34,-5.34 h 93.26 c 2.94,0 5.34,2.4 5.34,5.34 v 0 c 0,2.94 -2.41,5.34 -5.34,5.34 z"
   id="path17108" />
			<path
   class="st0"
   d="m 704.75,845.33 h -93.26 c -2.94,0 -5.34,-2.4 -5.34,-5.34 v 0 c 0,-2.94 2.4,-5.34 5.34,-5.34 h 93.26 c 2.94,0 5.34,2.4 5.34,5.34 v 0 c 0,2.93 -2.41,5.34 -5.34,5.34 z"
   id="path17110" />
		</g>
		<g
   id="g17122">
			<path
   class="st0"
   d="m 1423.67,419 h -93.26 c -2.94,0 -5.34,-2.4 -5.34,-5.34 v 0 c 0,-2.94 2.4,-5.34 5.34,-5.34 h 93.26 c 2.94,0 5.34,2.4 5.34,5.34 v 0 c -0.01,2.94 -2.41,5.34 -5.34,5.34 z"
   id="path17114" />
			<path
   class="st0"
   d="m 1423.67,444.94 h -93.26 c -2.94,0 -5.34,-2.4 -5.34,-5.34 v 0 c 0,-2.94 2.4,-5.34 5.34,-5.34 h 93.26 c 2.94,0 5.34,2.4 5.34,5.34 v 0 c -0.01,2.94 -2.41,5.34 -5.34,5.34 z"
   id="path17116" />
			<path
   class="st0"
   d="m 1423.67,470.88 h -93.26 c -2.94,0 -5.34,-2.4 -5.34,-5.34 v 0 c 0,-2.94 2.4,-5.34 5.34,-5.34 h 93.26 c 2.94,0 5.34,2.4 5.34,5.34 v 0 c -0.01,2.94 -2.41,5.34 -5.34,5.34 z"
   id="path17118" />
			<path
   class="st0"
   d="m 1423.67,496.82 h -93.26 c -2.94,0 -5.34,-2.4 -5.34,-5.34 v 0 c 0,-2.94 2.4,-5.34 5.34,-5.34 h 93.26 c 2.94,0 5.34,2.4 5.34,5.34 v 0 c -0.01,2.94 -2.41,5.34 -5.34,5.34 z"
   id="path17120" />
		</g>
		<g
   id="g17132">
			<path
   class="st0"
   d="m 1183.05,419 h -93.26 c -2.94,0 -5.34,-2.4 -5.34,-5.34 v 0 c 0,-2.94 2.4,-5.34 5.34,-5.34 h 93.26 c 2.94,0 5.34,2.4 5.34,5.34 v 0 c 0,2.94 -2.4,5.34 -5.34,5.34 z"
   id="path17124" />
			<path
   class="st0"
   d="m 1183.05,444.94 h -93.26 c -2.94,0 -5.34,-2.4 -5.34,-5.34 v 0 c 0,-2.94 2.4,-5.34 5.34,-5.34 h 93.26 c 2.94,0 5.34,2.4 5.34,5.34 v 0 c 0,2.94 -2.4,5.34 -5.34,5.34 z"
   id="path17126" />
			<path
   class="st0"
   d="m 1183.05,470.88 h -93.26 c -2.94,0 -5.34,-2.4 -5.34,-5.34 v 0 c 0,-2.94 2.4,-5.34 5.34,-5.34 h 93.26 c 2.94,0 5.34,2.4 5.34,5.34 v 0 c 0,2.94 -2.4,5.34 -5.34,5.34 z"
   id="path17128" />
			<path
   class="st0"
   d="m 1183.05,496.82 h -93.26 c -2.94,0 -5.34,-2.4 -5.34,-5.34 v 0 c 0,-2.94 2.4,-5.34 5.34,-5.34 h 93.26 c 2.94,0 5.34,2.4 5.34,5.34 v 0 c 0,2.94 -2.4,5.34 -5.34,5.34 z"
   id="path17130" />
		</g>
		<g
   id="g17142">
			<path
   class="st0"
   d="m 1183.05,592.22 h -93.26 c -2.94,0 -5.34,-2.4 -5.34,-5.34 v 0 c 0,-2.94 2.4,-5.34 5.34,-5.34 h 93.26 c 2.94,0 5.34,2.4 5.34,5.34 v 0 c 0,2.94 -2.4,5.34 -5.34,5.34 z"
   id="path17134" />
			<path
   class="st0"
   d="m 1183.05,618.16 h -93.26 c -2.94,0 -5.34,-2.4 -5.34,-5.34 v 0 c 0,-2.94 2.4,-5.34 5.34,-5.34 h 93.26 c 2.94,0 5.34,2.4 5.34,5.34 v 0 c 0,2.94 -2.4,5.34 -5.34,5.34 z"
   id="path17136" />
			<path
   class="st0"
   d="m 1183.05,644.1 h -93.26 c -2.94,0 -5.34,-2.4 -5.34,-5.34 v 0 c 0,-2.94 2.4,-5.34 5.34,-5.34 h 93.26 c 2.94,0 5.34,2.4 5.34,5.34 v 0 c 0,2.94 -2.4,5.34 -5.34,5.34 z"
   id="path17138" />
			<path
   class="st0"
   d="m 1183.05,670.04 h -93.26 c -2.94,0 -5.34,-2.4 -5.34,-5.34 v 0 c 0,-2.94 2.4,-5.34 5.34,-5.34 h 93.26 c 2.94,0 5.34,2.4 5.34,5.34 v 0 c 0,2.94 -2.4,5.34 -5.34,5.34 z"
   id="path17140" />
		</g>
		<g
   id="g17152">
			<path
   class="st0"
   d="m 1423.67,591.8 h -93.26 c -2.94,0 -5.34,-2.4 -5.34,-5.34 v 0 c 0,-2.94 2.4,-5.34 5.34,-5.34 h 93.26 c 2.94,0 5.34,2.4 5.34,5.34 v 0 c -0.01,2.94 -2.41,5.34 -5.34,5.34 z"
   id="path17144" />
			<path
   class="st0"
   d="m 1423.67,617.74 h -93.26 c -2.94,0 -5.34,-2.4 -5.34,-5.34 v 0 c 0,-2.94 2.4,-5.34 5.34,-5.34 h 93.26 c 2.94,0 5.34,2.4 5.34,5.34 v 0 c -0.01,2.94 -2.41,5.34 -5.34,5.34 z"
   id="path17146" />
			<path
   class="st0"
   d="m 1423.67,643.68 h -93.26 c -2.94,0 -5.34,-2.4 -5.34,-5.34 v 0 c 0,-2.94 2.4,-5.34 5.34,-5.34 h 93.26 c 2.94,0 5.34,2.4 5.34,5.34 v 0 c -0.01,2.94 -2.41,5.34 -5.34,5.34 z"
   id="path17148" />
			<path
   class="st0"
   d="m 1423.67,669.62 h -93.26 c -2.94,0 -5.34,-2.4 -5.34,-5.34 v 0 c 0,-2.94 2.4,-5.34 5.34,-5.34 h 93.26 c 2.94,0 5.34,2.4 5.34,5.34 v 0 c -0.01,2.94 -2.41,5.34 -5.34,5.34 z"
   id="path17150" />
		</g>
		<g
   id="g17162">
			<path
   class="st0"
   d="m 1423.67,764.6 h -93.26 c -2.94,0 -5.34,-2.4 -5.34,-5.34 v 0 c 0,-2.94 2.4,-5.34 5.34,-5.34 h 93.26 c 2.94,0 5.34,2.4 5.34,5.34 v 0 c -0.01,2.94 -2.41,5.34 -5.34,5.34 z"
   id="path17154" />
			<path
   class="st0"
   d="m 1423.67,790.54 h -93.26 c -2.94,0 -5.34,-2.4 -5.34,-5.34 v 0 c 0,-2.94 2.4,-5.34 5.34,-5.34 h 93.26 c 2.94,0 5.34,2.4 5.34,5.34 v 0 c -0.01,2.94 -2.41,5.34 -5.34,5.34 z"
   id="path17156" />
			<path
   class="st0"
   d="m 1423.67,816.48 h -93.26 c -2.94,0 -5.34,-2.4 -5.34,-5.34 v 0 c 0,-2.94 2.4,-5.34 5.34,-5.34 h 93.26 c 2.94,0 5.34,2.4 5.34,5.34 v 0 c -0.01,2.94 -2.41,5.34 -5.34,5.34 z"
   id="path17158" />
			<path
   class="st0"
   d="m 1423.67,842.42 h -93.26 c -2.94,0 -5.34,-2.4 -5.34,-5.34 v 0 c 0,-2.94 2.4,-5.34 5.34,-5.34 h 93.26 c 2.94,0 5.34,2.4 5.34,5.34 v 0 c -0.01,2.94 -2.41,5.34 -5.34,5.34 z"
   id="path17160" />
		</g>
		<g
   id="g17172">
			<path
   class="st0"
   d="m 943.9,764.6 h -93.26 c -2.94,0 -5.34,-2.4 -5.34,-5.34 v 0 c 0,-2.94 2.4,-5.34 5.34,-5.34 h 93.26 c 2.94,0 5.34,2.4 5.34,5.34 v 0 c 0,2.94 -2.4,5.34 -5.34,5.34 z"
   id="path17164" />
			<path
   class="st0"
   d="m 943.9,790.54 h -93.26 c -2.94,0 -5.34,-2.4 -5.34,-5.34 v 0 c 0,-2.94 2.4,-5.34 5.34,-5.34 h 93.26 c 2.94,0 5.34,2.4 5.34,5.34 v 0 c 0,2.94 -2.4,5.34 -5.34,5.34 z"
   id="path17166" />
			<path
   class="st0"
   d="m 943.9,816.48 h -93.26 c -2.94,0 -5.34,-2.4 -5.34,-5.34 v 0 c 0,-2.94 2.4,-5.34 5.34,-5.34 h 93.26 c 2.94,0 5.34,2.4 5.34,5.34 v 0 c 0,2.94 -2.4,5.34 -5.34,5.34 z"
   id="path17168" />
			<path
   class="st0"
   d="m 943.9,842.42 h -93.26 c -2.94,0 -5.34,-2.4 -5.34,-5.34 v 0 c 0,-2.94 2.4,-5.34 5.34,-5.34 h 93.26 c 2.94,0 5.34,2.4 5.34,5.34 v 0 c 0,2.94 -2.4,5.34 -5.34,5.34 z"
   id="path17170" />
		</g>
		<g
   id="g17182">
			<path
   class="st0"
   d="m 704.75,416.1 h -93.26 c -2.94,0 -5.34,-2.4 -5.34,-5.34 v 0 c 0,-2.94 2.4,-5.34 5.34,-5.34 h 93.26 c 2.94,0 5.34,2.4 5.34,5.34 v 0 c 0,2.94 -2.41,5.34 -5.34,5.34 z"
   id="path17174" />
			<path
   class="st0"
   d="m 704.75,442.04 h -93.26 c -2.94,0 -5.34,-2.4 -5.34,-5.34 v 0 c 0,-2.94 2.4,-5.34 5.34,-5.34 h 93.26 c 2.94,0 5.34,2.4 5.34,5.34 v 0 c 0,2.94 -2.41,5.34 -5.34,5.34 z"
   id="path17176" />
			<path
   class="st0"
   d="m 704.75,467.98 h -93.26 c -2.94,0 -5.34,-2.4 -5.34,-5.34 v 0 c 0,-2.94 2.4,-5.34 5.34,-5.34 h 93.26 c 2.94,0 5.34,2.4 5.34,5.34 v 0 c 0,2.94 -2.41,5.34 -5.34,5.34 z"
   id="path17178" />
			<path
   class="st0"
   d="m 704.75,493.92 h -93.26 c -2.94,0 -5.34,-2.4 -5.34,-5.34 v 0 c 0,-2.94 2.4,-5.34 5.34,-5.34 h 93.26 c 2.94,0 5.34,2.4 5.34,5.34 v 0 c 0,2.94 -2.41,5.34 -5.34,5.34 z"
   id="path17180" />
		</g>
		
	</g>
	<g
   id="Button">
		<path
   class="st1"
   d="M 577.37,833.94 H 412.08 c -19.95,0 -36.27,-16.32 -36.27,-36.27 v 0 c 0,-19.95 16.32,-36.27 36.27,-36.27 h 165.29 c 19.95,0 36.27,16.32 36.27,36.27 v 0 c 0,19.95 -16.32,36.27 -36.27,36.27 z"
   id="path17195" />
		<g
   id="g17199">
			<path
   class="st2"
   d="m 421.68,825.24 c -15.2,0 -27.57,-12.37 -27.57,-27.57 0,-15.2 12.37,-27.57 27.57,-27.57 15.2,0 27.57,12.37 27.57,27.57 0,15.2 -12.37,27.57 -27.57,27.57 z m 0,-51.39 c -13.13,0 -23.82,10.69 -23.82,23.82 0,13.13 10.68,23.82 23.82,23.82 13.13,0 23.82,-10.69 23.82,-23.82 0,-13.13 -10.68,-23.82 -23.82,-23.82 z"
   id="path17197" />
		</g>
		<g
   id="g17203">
			<rect
   x="419.07001"
   y="810.70001"
   class="st2"
   width="3.75"
   height="7.1799998"
   id="rect17201" />
		</g>
		<g
   id="g17207">
			<rect
   x="419.07001"
   y="777.54999"
   class="st2"
   width="3.75"
   height="7.1799998"
   id="rect17205" />
		</g>
		<g
   id="g17211">
			
				<rect
   x="419.31"
   y="789.33002"
   transform="matrix(0.7637,-0.6455,0.6455,0.7637,-409.313,464.1051)"
   class="st2"
   width="20.049999"
   height="3.75"
   id="rect17209" />
		</g>
	</g>
	<g
   id="Button_1_">
		<g
   id="g17216">
			<path
   class="st0"
   d="M 450.96,730.54 H 285.67 c -19.95,0 -36.27,-16.32 -36.27,-36.27 v 0 c 0,-19.95 16.32,-36.27 36.27,-36.27 h 165.29 c 19.95,0 36.27,16.32 36.27,36.27 v 0 c 0,19.94 -16.32,36.27 -36.27,36.27 z"
   id="path17214" />
		</g>
		<g
   id="g17226">
			<polygon
   class="st1"
   points=""
   id="polygon17218" />
			<path
   class="st1"
   d="m 330.93,673.83 c -0.88,-0.88 -2.31,-0.88 -3.18,0 l -28.47,28.47 3.18,3.18 28.47,-28.47 c 0.88,-0.87 0.88,-2.3 0,-3.18 z"
   id="path17220" />
			<path
   class="st1"
   d="m 297.69,703.89 1.59,-1.59 -12.88,-12.88 c -0.88,-0.88 -2.31,-0.88 -3.18,0 -0.88,0.88 -0.88,2.31 0,3.18 l 14.47,14.47 c -0.87,-0.87 -0.87,-2.3 0,-3.18 z"
   id="path17222" />
			<path
   class="st1"
   d="m 297.69,703.89 c -0.88,0.88 -0.88,2.31 0,3.18 v 0 c 0.88,0.88 2.31,0.88 3.18,0 l 1.59,-1.59 -3.18,-3.18 z"
   id="path17224" />
		</g>
	</g>
</g>

<g
   id="g26692"
   transform="matrix(0.55005634,0,0,0.55005634,-564.71159,51.653413)"><g
     id="g14246"
     transform="translate(1288.683,84.076901)"><path
       id="rect3890"
       sodipodi:nodetypes="cccccccccccccccccsccccccccccsccccccccccsccccccccccc"
       style="fill:#d3d7cf"
       d="m 111.39,251.91 c -5.09,0 -5.46,4.13 -5.46,9.22 l -7.422,181.11 c 0,0.42 0.06,0.87 0.116,1.28 -0.058,0.5 -0.116,0.99 -0.116,1.5 v 45.19 c 12.642,17.87 33.382,41.12 31.852,64.05 v 401.95 c 0,10.91 8.75,19.73 19.66,19.73 h 19.49 c 10.91,0 19.67,-8.82 19.67,-19.73 V 554.26 c -3.9,-25.6 19.98,-43.58 31.85,-64.05 v -45.19 c 0,-0.51 -0.06,-1 -0.12,-1.5 0.06,-0.41 0.12,-0.86 0.12,-1.28 L 213.6,261.13 c 0,-5.09 -0.36,-9.22 -5.45,-9.22 -5.09,0 -5.51,4.13 -5.51,9.22 v 162.6 c 0.19,0.68 0.34,1.35 0.34,2.09 v 5.28 c 0,4.36 -3.52,7.89 -7.88,7.89 h -1.34 c -4.36,0 -7.89,-3.53 -7.89,-7.89 v -5.28 c 0,-0.89 0.19,-1.69 0.47,-2.49 l -3.72,-162.2 c 0,-5.09 -0.42,-9.22 -5.51,-9.22 -5.09,0 -5.45,4.13 -5.45,9.22 l -3.71,162.95 c 0.13,0.57 0.23,1.13 0.23,1.74 v 5.28 c 0,4.36 -3.53,7.89 -7.89,7.89 h -1.28 c -4.36,0 -7.89,-3.53 -7.89,-7.89 v -5.28 c 0,-0.94 0.17,-1.78 0.47,-2.61 l -3.72,-162.08 c 0,-5.09 -0.36,-9.22 -5.45,-9.22 -5.09,0 -5.51,4.13 -5.51,9.22 l -3.71,163.59 c 0.13,0.57 0.17,1.19 0.17,1.8 v 5.22 c 0,4.36 -3.47,7.89 -7.83,7.89 h -1.33 c -4.37,0 -7.89,-3.53 -7.89,-7.89 v -5.22 c 0,-1.03 0.22,-2.01 0.58,-2.9 V 261.13 c 0,-5.09 -0.42,-9.22 -5.51,-9.22 z" /><path
       id="rect4510"
       sodipodi:nodetypes="ccccccc"
       style="fill:url(#linearGradient4612)"
       d="m 181.06,639.65 c -2.17,0 -3.89,1.72 -3.89,3.89 v 330.83 c 3.1,-1.31 5.79,-3.41 7.83,-6.03 v -324.8 c 0,-2.17 -1.72,-3.89 -3.89,-3.89 z" /><path
       id="rect4512"
       sodipodi:nodetypes="ccccccc"
       style="fill:url(#linearGradient4588)"
       d="m 139.29,639.65 c -2.17,0 -3.95,1.72 -3.95,3.89 v 325.78 c 2.13,2.4 4.83,4.27 7.89,5.4 V 643.54 c 0,-2.17 -1.72,-3.89 -3.88,-3.89 z" /><path
       id="rect4514"
       sodipodi:nodetypes="cccccccc"
       style="fill:url(#linearGradient4596)"
       d="m 153.21,639.65 c -2.16,0 -3.94,1.72 -3.94,3.89 v 332.34 c 0.25,0.01 0.5,0.06 0.75,0.06 h 7.14 v -332.4 c 0,-2.17 -1.73,-3.89 -3.89,-3.89 z" /><path
       id="rect4516"
       sodipodi:nodetypes="cccccccc"
       style="fill:url(#linearGradient4604)"
       d="m 167.13,639.65 c -2.16,0 -3.94,1.72 -3.94,3.89 v 332.4 h 6.32 c 0.53,0 1.05,-0.08 1.57,-0.12 V 643.54 c 0,-2.17 -1.72,-3.89 -3.89,-3.89 z" /><path
       id="path4542"
       style="opacity:0.32042;fill:url(#radialGradient4614)"
       d="m 98.491,449.91 v 0.12 45.19 c 12.649,17.87 33.379,41.12 31.849,64.04 v 30.46 h 58.82 v -30.46 c -3.9,-25.59 19.98,-43.58 31.85,-64.04 v -45.19 -0.12 H 98.49 Z" /><rect
       id="rect4568"
       style="opacity:0.32042;fill:url(#linearGradient4576)"
       ry="3.9068999"
       height="9.2817001"
       width="54.762001"
       y="593.62"
       x="132.39" /><rect
       id="rect4578"
       style="opacity:0.32042;fill:url(#linearGradient4580)"
       ry="3.9068999"
       height="9.2817001"
       width="54.762001"
       y="603.83002"
       x="132.39" /><rect
       id="rect4616"
       ry="2.1046"
       style="opacity:0.69366;fill:url(#radialGradient4624);filter:url(#filter4662)"
       transform="matrix(2.1356,0,0,-1.8563,-304.06,1154.7)"
       height="7"
       width="56.5"
       y="364.85999"
       x="188.5" /></g><g
     id="g14234"
     transform="translate(1288.683,84.076901)"><path
       id="path4670"
       style="fill:#d3d7cf"
       d="m 366.52,254.98 c -45.9,0 -86.85,80.55 -86.85,161.5 0,61.89 23.97,106.14 55.75,123.57 1.32,4.72 2,9.46 1.69,14.21 v 401.95 c 0,10.91 8.75,19.73 19.66,19.73 h 19.49 c 10.91,0 19.67,-8.82 19.67,-19.73 V 554.26 c -0.72,-4.74 -0.52,-9.24 0.4,-13.52 32.45,-16.91 57.03,-61.51 57.03,-124.26 0,-80.95 -40.95,-161.5 -86.84,-161.5 z" /><path
       id="path4672"
       sodipodi:nodetypes="ccccccc"
       style="fill:url(#linearGradient4789)"
       d="m 387.82,639.65 c -2.16,0 -3.88,1.72 -3.88,3.89 v 330.83 c 3.1,-1.31 5.79,-3.41 7.83,-6.03 v -324.8 c 0,-2.17 -1.72,-3.89 -3.89,-3.89 z" /><path
       id="path4674"
       sodipodi:nodetypes="ccccccc"
       style="fill:url(#linearGradient4786)"
       d="m 346.06,639.65 c -2.17,0 -3.95,1.72 -3.95,3.89 v 325.78 c 2.13,2.4 4.83,4.27 7.89,5.4 V 643.54 c 0,-2.17 -1.72,-3.89 -3.89,-3.89 z" /><path
       id="path4676"
       sodipodi:nodetypes="cccccccc"
       style="fill:url(#linearGradient4783)"
       d="m 359.98,639.65 c -2.17,0 -3.95,1.72 -3.95,3.89 v 332.34 c 0.26,0.01 0.5,0.06 0.76,0.06 h 7.13 v -332.4 c 0,-2.17 -1.72,-3.89 -3.88,-3.89 z" /><path
       id="path4678"
       sodipodi:nodetypes="cccccccc"
       style="fill:url(#linearGradient4780)"
       d="m 373.9,639.65 c -2.16,0 -3.94,1.72 -3.94,3.89 v 332.4 h 6.32 c 0.53,0 1.05,-0.08 1.57,-0.12 V 643.54 c 0,-2.17 -1.73,-3.89 -3.89,-3.89 z" /><rect
       id="rect4682"
       style="opacity:0.32042;fill:url(#linearGradient4777)"
       ry="3.9068999"
       height="9.2817001"
       width="54.762001"
       y="593.62"
       x="339.14999" /><rect
       id="rect4684"
       style="opacity:0.32042;fill:url(#linearGradient4774)"
       ry="3.9068999"
       height="9.2817001"
       width="54.762001"
       y="603.83002"
       x="339.14999" /><path
       id="path4793"
       style="fill:url(#linearGradient4807)"
       d="m 368.37,254.98 c -45.89,0 -86.84,80.55 -86.84,161.5 0,61.89 23.97,106.14 55.75,123.57 1.32,4.72 2,9.46 1.68,14.21 V 573 h 58.82 v -18.74 c -0.72,-4.74 -0.52,-9.24 0.41,-13.52 32.45,-16.91 57.03,-61.51 57.03,-124.26 0,-80.95 -40.95,-161.5 -86.85,-161.5 z" /><path
       id="path4809"
       style="fill:url(#radialGradient26171)"
       d="m 368.37,256.84 c -45.89,0 -86.84,80.55 -86.84,161.5 0,61.89 23.97,106.13 55.75,123.56 0.13,0.47 0.23,0.93 0.35,1.39 h 60.44 c 0.05,-0.23 0.07,-0.46 0.12,-0.69 32.45,-16.91 57.03,-61.51 57.03,-124.26 0,-80.95 -40.95,-161.5 -86.85,-161.5 z" /><path
       id="path4824"
       style="opacity:0.49296;fill:url(#radialGradient4822)"
       d="m 368.37,256.84 c -45.89,0 -86.84,80.55 -86.84,161.5 0,61.89 23.97,106.13 55.75,123.56 0.13,0.47 0.23,0.93 0.35,1.39 h 60.44 c 0.05,-0.23 0.07,-0.46 0.12,-0.69 32.45,-16.91 57.03,-61.51 57.03,-124.26 0,-80.95 -40.95,-161.5 -86.85,-161.5 z" /></g><path
     id="path13612"
     sodipodi:nodetypes="cccccccccccccccccccccccccccccccccccccccccccccccccccccccccccccccccccccccccccccccccccccccccccccccccccccccccccccccccccccccccccccccccccccccccccccccccccccccccccccccccccccccccccccccccccccccccccccccccccccccccccccccccccccccccccccccccccccccccccccccccccccccccccccccccccccccccccccccccccccccccccccccccccccccccc"
     style="fill:#d3d7cf"
     d="m 1810.683,330.7969 10.34,715.5 c 0,10.91 8.78,19.72 19.69,19.72 h 19.47 c 10.91,0 19.69,-8.81 19.69,-19.72 l -1.5,-381.47 c 10.74,-0.5 19.42,-0.01 25.22,0.34 v 0.07 l 7.21,-0.07 -3.62,-2.06 -1.09,-0.62 1.12,-0.63 3.59,-2.12 -3.62,-2.07 -1.09,-0.62 1.12,-0.63 3.59,-2.12 -3.62,-2.06 -1.09,-0.63 1.12,-0.65 3.59,-2.1 -3.62,-2.06 -1.09,-0.63 1.12,-0.65 3.59,-2.1 -3.62,-2.06 -1.09,-0.62 1.12,-0.66 3.59,-2.09 -3.62,-2.07 -0.69,-0.4 0.72,-0.41 3.59,-2.09 -3.62,-2.06 -1.09,-0.63 1.12,-0.66 3.59,-2.09 -3.62,-2.09 -1.09,-0.6 1.12,-0.65 3.59,-2.1 -3.62,-2.09 -1.09,-0.63 1.12,-0.62 3.59,-2.1 -3.62,-2.09 -1.09,-0.62 1.12,-0.63 3.59,-2.09 -3.62,-2.1 -1.09,-0.62 1.12,-0.63 3.59,-2.12 -3.62,-2.06 -0.69,-0.38 0.72,-0.4 3.59,-2.1 -3.62,-2.06 -1.09,-0.63 1.12,-0.65 3.59,-2.1 -3.62,-2.09 -1.09,-0.59 1.12,-0.66 3.59,-2.09 -3.62,-2.1 -1.09,-0.62 1.12,-0.63 3.59,-2.09 -3.62,-2.09 -1.09,-0.63 1.12,-0.63 3.59,-2.09 -3.62,-2.09 -1.09,-0.63 1.12,-0.62 3.59,-2.13 -3.62,-2.06 -0.69,-0.38 0.72,-0.4 3.59,-2.13 -3.62,-2.06 -1.09,-0.62 1.12,-0.63 3.59,-2.12 -3.62,-2.07 -1.09,-0.62 1.12,-0.63 3.59,-2.12 -3.62,-2.06 -1.09,-0.63 1.12,-0.65 3.59,-2.1 -3.62,-2.06 -1.09,-0.63 1.12,-0.65 3.59,-2.1 -3.62,-2.06 -1.09,-0.62 1.12,-0.66 3.59,-2.09 -3.62,-2.07 -0.69,-0.37 0.72,-0.41 3.59,-2.12 -3.62,-2.06 -1.09,-0.63 1.12,-0.63 3.59,-2.12 -3.62,-2.06 -1.09,-0.63 1.12,-0.62 3.59,-2.13 -3.62,-2.06 -1.09,-0.62 1.12,-0.66 3.59,-2.1 -3.62,-2.06 -1.09,-0.62 1.12,-0.66 3.59,-2.09 -3.62,-2.07 -1.09,-0.62 1.12,-0.66 3.59,-2.09 -3.62,-2.06 -0.69,-0.38 0.72,-0.43 3.59,-2.1 -3.62,-2.06 -1.09,-0.63 1.12,-0.65 3.59,-2.1 -3.62,-2.09 -1.09,-0.59 1.12,-0.66 3.59,-2.09 -3.62,-2.1 -1.09,-0.62 1.12,-0.63 3.59,-2.09 -3.62,-2.09 -1.09,-0.63 1.12,-0.63 3.59,-2.09 -3.62,-2.09 -1.09,-0.63 1.12,-0.62 3.59,-2.13 -3.62,-2.06 -1.09,-0.62 1.12,-0.66 3.59,-2.13 -3.62,-2.06 -1.09,-0.62 1.12,-0.63 3.59,-2.12 -3.62,-2.07 -1.09,-0.62 1.12,-0.63 3.59,-2.12 -3.62,-2.06 -1.09,-0.63 1.12,-0.65 3.59,-2.1 -3.62,-2.06 -1.09,-0.63 1.12,-0.65 3.59,-2.1 -3.62,-2.06 -1.09,-0.62 1.12,-0.66 3.59,-2.09 -3.62,-2.07 -0.69,-0.4 0.72,-0.41 3.59,-2.09 -3.62,-2.06 -1.09,-0.63 1.12,-0.66 3.59,-2.09 -3.62,-2.09 -1.09,-0.6 1.12,-0.65 3.59,-2.1 -3.62,-2.09 -1.09,-0.63 1.12,-0.62 3.59,-2.1 -3.62,-2.09 -1.09,-0.62 1.12,-0.63 3.59,-2.09 -3.62,-2.1 -1.09,-0.62 1.12,-0.63 3.59,-2.12 -3.62,-2.06 -0.69,-0.38 0.72,-0.4 3.59,-2.1 -3.62,-2.06 -1.09,-0.63 1.12,-0.65 3.59,-2.1 -3.62,-2.09 -1.09,-0.59 1.12,-0.66 3.59,-2.09 -3.62,-2.1 -1.09,-0.62 1.12,-0.63 3.59,-2.09 -3.62,-2.09 -1.09,-0.63 1.12,-0.63 3.59,-2.09 -3.62,-2.09 -1.09,-0.63 1.12,-0.62 3.59,-2.13 -3.62,-2.06 -0.69,-0.38 0.72,-0.4 3.59,-2.13 -3.62,-2.06 -1.09,-0.62 1.12,-0.63 3.59,-2.12 -3.62,-2.07 -1.09,-0.62 1.12,-0.63 3.59,-2.12 -3.62,-2.06 -1.09,-0.63 1.12,-0.65 3.59,-2.1 -3.62,-2.06 -1.09,-0.63 1.12,-0.65 3.59,-2.1 -3.62,-2.06 -1.09,-0.62 1.12,-0.66 3.59,-2.09 -3.62,-2.07 -0.69,-0.37 0.72,-0.41 3.59,-2.12 -3.62,-2.06 -1.09,-0.63 1.12,-0.63 3.59,-2.12 -3.62,-2.06 -1.09,-0.63 1.12,-0.62 3.59,-2.13 -3.62,-2.06 -1.09,-0.62 1.12,-0.66 3.59,-2.1 -3.62,-2.06 -1.09,-0.62 1.12,-0.66 3.59,-2.09 -3.62,-2.07 -1.09,-0.62 1.12,-0.66 3.59,-2.09 -3.62,-2.06 -0.69,-0.38 0.72,-0.43 3.59,-2.1 -3.62,-2.06 -1.09,-0.63 1.12,-0.65 3.59,-2.1 -3.62,-2.09 -1.09,-0.59 1.12,-0.66 3.59,-2.09 -3.62,-2.1 -0.97,-0.53 c 0,-0.06 0.03,-0.12 0.03,-0.19 l 0.97,-0.53 3.59,-2.09 -3.62,-2.09 -0.94,-0.54 v -0.18 l 0.97,-0.54 3.59,-2.09 -3.62,-2.09 -1.09,-0.63 1.12,-0.62 3.59,-2.13 -3.62,-2.06 -1.59,-0.91 c -15.03,-48.06 -85.5,25.6 -94.91,50.13 z" /><path
     id="path13614"
     sodipodi:nodetypes="ccccccc"
     style="fill:url(#linearGradient14293)"
     d="m 1871.743,729.7269 c -2.17,0 -3.89,1.72 -3.89,3.89 v 330.83 c 3.1,-1.31 5.79,-3.41 7.83,-6.03 v -324.8 c 0,-2.17 -1.72,-3.89 -3.89,-3.89 z" /><path
     id="path13616"
     sodipodi:nodetypes="ccccccc"
     style="fill:url(#linearGradient14290)"
     d="m 1829.973,729.7269 c -2.17,0 -3.95,1.72 -3.95,3.89 v 325.78 c 2.13,2.4 4.83,4.27 7.89,5.4 v -331.18 c 0,-2.17 -1.72,-3.89 -3.88,-3.89 z" /><path
     id="path13618"
     sodipodi:nodetypes="cccccccc"
     style="fill:url(#linearGradient14287)"
     d="m 1843.893,729.7269 c -2.16,0 -3.94,1.72 -3.94,3.89 v 332.34 c 0.25,0.01 0.5,0.06 0.75,0.06 h 7.14 v -332.4 c 0,-2.17 -1.73,-3.89 -3.89,-3.89 z" /><path
     id="path13620"
     sodipodi:nodetypes="cccccccc"
     style="fill:url(#linearGradient14284)"
     d="m 1857.813,729.7269 c -2.16,0 -3.94,1.72 -3.94,3.89 v 332.4 h 6.32 c 0.53,0 1.05,-0.08 1.57,-0.12 v -332.28 c 0,-2.17 -1.72,-3.89 -3.89,-3.89 z" /><rect
     id="rect13624"
     style="opacity:0.32042;fill:url(#linearGradient14281)"
     ry="3.9068999"
     height="9.2817001"
     width="54.762001"
     y="683.6969"
     x="1823.073" /><rect
     id="rect13626"
     style="opacity:0.32042;fill:url(#linearGradient14278)"
     ry="3.9068999"
     height="9.2817001"
     width="54.762001"
     y="693.90692"
     x="1823.073" /><path
     id="rect13698"
     sodipodi:nodetypes="ccccccc"
     style="opacity:0.56981;fill:url(#linearGradient14304)"
     d="m 1876.993,660.5369 c 0,2.16 1.23,3.9 2.75,3.9 l 21.2,-6 c 1.52,0 2.74,-1.74 2.74,-3.9 v -350.19 c 0,-2.17 -1.22,-3.91 -2.74,-3.91 l -21.9,-16" /></g></svg>
