<?xml version="1.0" encoding="UTF-8" standalone="no"?>
<!DOCTYPE svg PUBLIC "-//W3C//DTD SVG 1.1//EN" "http://www.w3.org/Graphics/SVG/1.1/DTD/svg11.dtd">
<svg width="100%" height="100%" viewBox="0 0 32 32" version="1.1" xmlns="http://www.w3.org/2000/svg" xmlns:xlink="http://www.w3.org/1999/xlink" xml:space="preserve" xmlns:serif="http://www.serif.com/" style="fill-rule:evenodd;clip-rule:evenodd;stroke-linejoin:round;stroke-miterlimit:2;">
    <circle cx="16" cy="17" r="14" style="fill:rgb(0,16,15);fill-opacity:0.2;"/>
    <circle cx="16" cy="16" r="14" style="fill:rgb(0,150,136);"/>
    <g transform="matrix(1,0,0,1,0,1)">
        <g opacity="0.2">
            <path d="M16,6C13.79,6 12,7.791 12,10C12,12.209 13.79,14 16,14C18.21,14 20,12.209 20,10C20,7.791 18.21,6 16,6Z" style="fill-rule:nonzero;"/>
            <path d="M16,16C9.001,16.004 9,20.431 9,20.431L9,22.231C9,22.231 10.292,25 16,25C21.708,25 23,22.231 23,22.231L23,20.431C23,20.431 23,15.997 16.001,16L16,16Z" style="fill-rule:nonzero;"/>
        </g>
    </g>
    <g>
        <path d="M16,6C13.79,6 12,7.791 12,10C12,12.209 13.79,14 16,14C18.21,14 20,12.209 20,10C20,7.791 18.21,6 16,6Z" style="fill:white;fill-rule:nonzero;"/>
        <path d="M16,16C9.001,16.004 9,20.431 9,20.431L9,22.231C9,22.231 10.292,25 16,25C21.708,25 23,22.231 23,22.231L23,20.431C23,20.431 23,15.997 16.001,16L16,16Z" style="fill:white;fill-rule:nonzero;"/>
    </g>
    <path d="M16,2C8.32,2 2,8.32 2,16C2.003,16.195 2.01,16.391 2.021,16.586C2.244,9.071 8.482,3.008 16,3C23.456,3.005 29.666,8.965 29.979,16.414C29.988,16.276 29.995,16.138 30,16C30,8.32 23.68,2 16,2Z" style="fill:white;fill-opacity:0.2;fill-rule:nonzero;"/>
</svg>
